<?xml version="1.0" encoding="UTF-8"?>
<svg id="Layer_1" data-name="Layer 1" xmlns="http://www.w3.org/2000/svg" xmlns:xlink="http://www.w3.org/1999/xlink" viewBox="0 0 529.22 537.47">
  <defs>
    <style>
      .cls-1 {
        clip-path: url(#clippath);
      }

      .cls-2 {
        fill: none;
      }

      .cls-2, .cls-3, .cls-4, .cls-5 {
        stroke-width: 0px;
      }

      .cls-3 {
        fill: #0e2758;
      }

      .cls-4 {
        fill: #bbccf3;
      }

      .cls-5 {
        fill: #859ebe;
      }
    </style>
    <clipPath id="clippath">
      <rect class="cls-2" width="529.21" height="537.47"/>
    </clipPath>
  </defs>
  <g class="cls-1">
    <path class="cls-3" d="M435.79,167.09c1.39,14.72,2.28,35.15.07,59.18-2.76,30-8.41,91.42-53.06,144.85-12.71,15.21-31.5,37.17-64.27,50.75-20.1,8.33-39.72,11.14-57.08,11.14-27.21,0-48.87-6.89-58.14-10.18-24.28-8.71-46.26-13.88-64.82-17.03-9.81-1.67-17.2-2.89-27.51-3.37-5.3-.24-11.2-.58-17.52-.58-14.97,0-32.31,1.91-49.66,11.55-7.2,4-22.36,11.82-33.28,28.4-2.31,3.5-5.73,7.26-7.1,13.17-.77,3.33-.83,6.45-.55,9.17,10.18,16.5,31.9,25.1,70.31,39.79,40.58,15.52,76.46,23.08,103.36,27.2,39.62,6.07,70.21,6.29,88.85,6.35.69,0,1.39,0,2.08,0,51.31,0,88.85-5.96,96.74-7.26,21.15-3.46,50.65-8.45,86.8-22.39,39.52-15.24,66.61-25.68,76.25-50.69,1.5-3.88,4.63-13.43-2.86-55.07-7.57-42.15-18.12-73.19-19.67-77.68-20.91-60.73-31.37-91.09-47.15-120.59-7.16-13.38-14.37-25.43-21.82-36.72"/>
    <path class="cls-5" d="M405.8,126.38c-2.7,14.13-7.43,33.47-16.19,55.39-9.33,23.33-17.43,43.59-36.11,63.7-9.73,10.47-34.11,36.7-70.49,40.89-3.28.38-6.47.55-9.6.55-15.24,0-29.13-4.16-46.48-9.36-22.64-6.78-33.98-14.37-61.63-19.18-10.17-1.77-16.26-2.83-24.53-2.83h-.34s-62.3.23-108.91,65.12c-.28.39-.55.77-.55.77-7.32,10.87-11.91,20.88-14.86,28.78-2.55,6.79-3.97,12.26-5.54,18.27-1.6,6.15-2.79,11.62-6.31,31.17-1.14,6.36-2.61,14.59-4.27,24.25,6.4-10.91,17.12-25.9,34.2-39.3,14.59-11.45,27.98-17.13,33.06-19.16,2.85-1.13,13.75-5.35,28.95-7.8,3.93-.63,12.18-1.8,23.2-1.8,8.13,0,17.77.63,28.3,2.58,6.67,1.23,16.61,3.13,28.41,8.15,4.01,1.7,11.21,5.03,18.85,9,4.92,2.56,8.37,4.53,14.18,7.14,4.9,2.21,9.03,3.76,11.78,4.74,0,0,19.23,6.36,40.24,6.98.99.03,1.96.04,2.91.04,5.34,0,9.68-.39,9.68-.39,6.6-.26,15.9-1.18,26.55-4.2,39.25-11.14,61.44-41.03,74.07-58.02,49.95-67.19,47.93-167.85,47.41-184.77-5.17-7.02-10.49-13.86-16.02-20.7"/>
    <path class="cls-4" d="M263.85,0c-.17,0-.33,0-.49,0-9.56.13-18.97,3.98-51.45,33.34-34.1,30.83-48.96,48.06-48.96,48.06-45.84,53.13-68.77,79.69-92.48,121.49-30.3,53.41-44.91,100.09-51.23,123.02-.58,2.1-1.15,4.32-1.73,6.71,2.32-5.49,4.94-11.19,7.9-17.04,13.39-26.42,36.61-72.21,83.93-88.86,13.54-4.76,25.96-6.06,33.79-6.37,1.47-.06,2.91-.08,4.3-.08,27.39,0,38.73,10.82,72,18.83,15.27,3.67,31.78,7.88,49.5,7.88,9.36,0,19.06-1.17,29.1-4.22,36.49-11.06,56.44-41.33,63.25-51.53,15.36-23.02,19.95-45.23,21.9-55.14,2.47-12.57,3.14-23.85,3.04-33.14-6.32-7.35-12.92-14.91-19.87-22.86,0,0-17.39-19.89-51.98-49.48C282.51,3.39,272.5,0,263.85,0"/>
  </g>
</svg>